<svg width="24" height="24" viewBox="0 0 24 24" fill="none" xmlns="http://www.w3.org/2000/svg">
<path fill-rule="evenodd" clip-rule="evenodd" d="M16.7729 7.22699C17.0658 7.51989 17.0658 7.99476 16.7729 8.28765L8.28765 16.7729C7.99476 17.0658 7.51989 17.0658 7.22699 16.7729C6.9341 16.48 6.9341 16.0052 7.22699 15.7123L15.7123 7.22699C16.0052 6.9341 16.48 6.9341 16.7729 7.22699Z" fill="#292D32"/>
<path fill-rule="evenodd" clip-rule="evenodd" d="M14.2981 14.2981C14.591 14.0052 15.0658 14.0052 15.3587 14.2981L16.7729 15.7123C17.0658 16.0052 17.0658 16.48 16.7729 16.7729C16.48 17.0658 16.0052 17.0658 15.7123 16.7729L14.2981 15.3587C14.0052 15.0658 14.0052 14.591 14.2981 14.2981Z" fill="#292D32"/>
<path fill-rule="evenodd" clip-rule="evenodd" d="M7.22699 7.22699C7.51989 6.9341 7.99476 6.9341 8.28765 7.22699L12.2899 11.2292C12.5828 11.5221 12.5828 11.997 12.2899 12.2899C11.997 12.5828 11.5221 12.5828 11.2292 12.2899L7.22699 8.28765C6.9341 7.99476 6.9341 7.51989 7.22699 7.22699Z" fill="#292D32"/>
<path fill-rule="evenodd" clip-rule="evenodd" d="M16.7729 7.22699C17.0658 7.51989 17.0658 7.99476 16.7729 8.28765L8.28765 16.7729C7.99476 17.0658 7.51989 17.0658 7.22699 16.7729C6.9341 16.48 6.9341 16.0052 7.22699 15.7123L15.7123 7.22699C16.0052 6.9341 16.48 6.9341 16.7729 7.22699Z" fill="#292D32"/>
</svg>
